<?xml version="1.0" standalone="no"?>
<!DOCTYPE svg PUBLIC "-//W3C//DTD SVG 20010904//EN"
 "http://www.w3.org/TR/2001/REC-SVG-20010904/DTD/svg10.dtd">
<svg version="1.0" xmlns="http://www.w3.org/2000/svg"
 width="279.000000pt" height="279.000000pt" viewBox="0 0 279.000000 279.000000"
 preserveAspectRatio="xMidYMid meet">
<metadata>
Created by potrace 1.11, written by Peter Selinger 2001-2013
</metadata>
<g transform="translate(0.000000,279.000000) scale(0.100000,-0.100000)"
fill="#000000" stroke="none">
<path d="M0 1395 l0 -1085 1395 0 1395 0 0 1085 0 1085 -1395 0 -1395 0 0
-1085z m2215 587 c33 -11 74 -26 92 -33 29 -12 34 -11 56 9 15 14 36 22 60 22
l37 0 0 -195 0 -195 -33 0 c-31 0 -34 3 -76 96 -78 169 -160 238 -286 239
-124 0 -195 -58 -195 -161 0 -103 51 -141 299 -225 180 -62 257 -107 301 -176
39 -61 50 -102 50 -188 0 -294 -380 -446 -747 -299 l-65 26 -27 -26 c-17 -16
-38 -26 -58 -26 -40 0 -43 15 -43 236 l0 174 34 0 c29 0 36 -5 47 -32 29 -72
95 -174 144 -223 92 -92 204 -124 317 -91 131 38 181 193 90 278 -38 36 -91
61 -222 103 -233 75 -315 133 -361 254 -27 73 -23 195 8 256 47 91 160 171
274 195 71 15 236 5 304 -18z m-1215 -22 c299 -61 469 -261 470 -550 0 -241
-128 -421 -364 -509 -114 -42 -207 -51 -557 -51 l-329 0 0 29 c0 30 18 41 72
41 39 0 74 19 87 47 14 31 15 840 1 877 -13 34 -49 56 -107 64 -45 7 -48 9
-51 40 l-3 32 343 0 c301 0 355 -3 438 -20z"/>
<path d="M703 1903 l-33 -4 0 -435 c0 -467 2 -486 52 -517 36 -23 92 -29 160
-17 103 19 164 64 213 160 32 63 46 133 52 265 12 270 -58 441 -210 514 -63
30 -160 44 -234 34z"/>
</g>
</svg>
